<svg xmlns="http://www.w3.org/2000/svg" viewBox="0 0 789.51 697.93"><defs><style>.cls-1{fill:#f68b38;}.cls-2{fill:blue;}.cls-3{fill:#b3b3b3;}.cls-4{fill:#00ade6;}.cls-5{fill:#fff;}.cls-6{fill:#fbb03b;}</style></defs><g id="Layer_1" data-name="Layer 1"><path class="cls-1" d="M478.57,261.69c9.8,3,19.61,5.91,29.39,9,39.42,12.33,78.9,24.47,118.23,37.12,28.1,9,52.23,24.71,72.81,45.87,31.68,32.56,50.07,72,58.38,116.11,10.21,54.22,4,106.78-18.49,157.3-13.07,29.34-31.24,55.06-55.21,76.39-28.32,25.19-61.23,41.18-99,46.2-48.68,6.48-97.41,12.62-146.12,18.9-1.14.15-2.3.15-3.52.22,10-4.45,19.91-8.55,29.54-13.3,22.85-11.26,42.14-27.26,59.5-45.71,26.21-27.85,44.84-60.28,58-96A328,328,0,0,0,602,484.24c-1.88-41.51-11-81.37-29.09-119.06-12.22-25.47-27.81-48.51-47.8-68.42a186,186,0,0,0-44.31-33.07c-.85-.45-1.67-.94-2.51-1.41Z" transform="translate(-153.4 -189.74)"/><path class="cls-1" d="M600.65,498.84c-.41,52.64-11.72,102.59-35.95,149.3-24.48,47.17-58.27,85.9-107.22,108.6-58.75,27.26-116,22.5-170.08-13.11-41.25-27.18-67.7-66.25-85.33-111.7-16.66-43-22.44-87.7-19.56-133.46,3.56-56.61,19.91-109.3,51.79-156.58,22.44-33.26,50.65-60.37,87-78.3C362.46,243.31,405,239.51,449,252.64c34.82,10.38,62.82,30.92,86.21,58.06,37,42.94,55.83,93.67,62.58,149.31C599.35,472.88,599.73,485.89,600.65,498.84Zm-212-205.24a130.84,130.84,0,0,0-48,9.38C297.37,320.46,266.88,351.82,245,392c-18.43,33.84-28.17,70.27-30.5,108.8-2.36,39.05,3.07,76.81,18,113,17.86,43.29,45.42,78.29,88.89,98.38,30.91,14.28,63.13,17.11,95.94,7.35,40.37-12,70.94-37.46,94.44-71.61,32.68-47.49,46-100.79,44-157.89a264.78,264.78,0,0,0-6.82-49.36c-10-43.93-30.06-82.4-64.76-112.2C457.49,305.57,426.82,293.21,388.65,293.6Z" transform="translate(-153.4 -189.74)"/><path class="cls-2" d="M923.87,409.66c-7.89-2.29-14.72-4.24-21.54-6.25l-98.69-29.2c-5.55-1.64-5.89-1.41-5.88,4.57,0,32,.21,64,.15,96,0,5,1.76,7,6.75,7.74,16.3,2.42,32.52,5.39,48.81,8,3.95.63,5.61,2.15,5.62,6.45q.06,32,.73,63.95c.09,4.55-1.22,6.25-6,5.89-16.6-1.28-33.23-2.13-49.83-3.47-4.32-.34-5.53,1-5.51,5.12q.3,49,.25,98c0,4.7,1.67,6,6.26,5.63,24.41-1.78,48.83-3.27,73.25-4.87,13.79-.91,27.58-1.73,41.35-2.82,4.43-.36,6.25.69,6.19,5.58q-.32,28.74.12,57.49c.08,4.71-1.62,6.3-6,7Q845,746.73,770.14,759.36c-4.82.81-4.75-1.74-4.75-5.07q-.09-75-.26-150c0-29.83.13-59.66,0-89.48q-.48-114.47-1.14-228.91c0-2.13,0-4.25,0-7.5,5.47,2.05,10.07,3.7,14.61,5.5q69.87,27.74,139.75,55.46c3.75,1.48,5.4,3.3,5.36,7.62-.18,18.66.07,37.32.15,56C923.87,404.79,923.87,406.59,923.87,409.66Z" transform="translate(-153.4 -189.74)"/><path class="cls-3" d="M601.59,840.65c0,14-.15,28,.09,42,.08,4.5-1.68,5.33-5.68,4.93q-65.85-6.57-131.74-13c-45.57-4.51-91.13-9.14-136.7-13.61q-63.88-6.27-127.79-12.34c-13.92-1.35-27.84-2.75-41.76-4.07-2.84-.27-4.66-1.1-4.61-4.51.35-22.82.57-45.64.86-68.46.09-6.54.19-6.64,6.89-6.21,33.57,2.17,67.12,4.44,100.69,6.56,29.58,1.87,59.18,3.52,88.76,5.38,33.9,2.14,67.79,4.44,101.68,6.59,23.77,1.51,47.54,2.85,71.31,4.33,24.43,1.53,48.85,3.19,73.28,4.65,3.65.22,4.83,1.61,4.79,5.22C601.5,812.32,601.59,826.48,601.59,840.65Z" transform="translate(-153.4 -189.74)"/><path class="cls-3" d="M603.68,887.39c-.12-2.29-.27-3.76-.27-5.23,0-27.82.08-55.65-.09-83.47,0-4.38,1.3-6,5.72-6.72q99.74-16.71,199.41-33.81,62.76-10.7,125.51-21.47c2.58-.44,5.19-.76,8.38-1.22.13,3,.33,5.45.34,7.89.08,16.33,0,32.65.23,49,.05,3.78-1.13,5.58-5,6.59q-119.77,31.65-239.48,63.56Q654,874.28,609.61,886.07C607.88,886.53,606.11,886.85,603.68,887.39Z" transform="translate(-153.4 -189.74)"/><path class="cls-4" d="M762.85,556.79c0,36,0,71.51,0,107q0,34.47.15,69c0,7.32.26,14.64.62,21.95.19,3.83-1,5.46-5.09,5.23q-21.67-1.24-43.38-2.08c-3.86-.16-4.13-2.41-4.13-5.34,0-16.49.06-33,0-49.47,0-6.48-.58-13-.47-19.45a12.2,12.2,0,0,1,2.1-6.88c27.09-35.09,42.87-74.87,49.63-118.46A8.42,8.42,0,0,1,762.85,556.79Z" transform="translate(-153.4 -189.74)"/><path class="cls-4" d="M762,477.56c-5.9-38.46-20.59-76.24-46.5-109.19a24.22,24.22,0,0,1-5.57-16.29c.08-20.8-.17-41.6-.58-62.4-.1-4.68,1.32-6.24,6-6.67,12.92-1.18,25.78-3,38.65-4.55,7.26-.89,7.74-.51,7.75,6.71L762,445.49C762,457.14,762,468.78,762,477.56Z" transform="translate(-153.4 -189.74)"/><path class="cls-1" d="M537.43,277.1c-9.8-3-18.51-5.74-27.24-8.38q-38.47-11.67-77-23.23c-2.63-.79-4-1.92-3.85-4.82.33-7.82.14-15.68.92-23.44.22-2.23,2.69-5.39,4.78-6a130.35,130.35,0,0,1,22.25-5.26,190,190,0,0,1,65.05,2.77c1.13.25,2.26.55,3.38.88,11.5,3.36,12.14,4.23,12.13,16.23,0,14.83,0,29.66,0,44.49C537.85,272.21,537.62,274.14,537.43,277.1Z" transform="translate(-153.4 -189.74)"/><path class="cls-4" d="M707.4,684.55c.1,1.93.3,3.85.31,5.78,0,20.65-.06,41.31.07,62,0,4.1-.95,5.28-5.44,5-15.93-1.16-31.9-1.68-47.86-2.44l-62.41-3c8.29-2.16,17.09-4,25.55-6.8A193.83,193.83,0,0,0,643,734.61a191.46,191.46,0,0,0,23-13.92c7.5-5.2,14.56-11.07,21.59-16.91s13.73-11.95,20.58-17.95Z" transform="translate(-153.4 -189.74)"/><path class="cls-4" d="M705.85,356.82c-28.09-31.95-64.22-49.83-104.63-60.37q50.55-5.94,101.09-11.9c2.49-.3,4.29-.08,4.29,3.1q0,34,0,68C706.64,355.88,706.31,356.14,705.85,356.82Z" transform="translate(-153.4 -189.74)"/><path class="cls-1" d="M426.59,216.25c-5.22-4.47-6.07-10.66-1.35-14.54a36.06,36.06,0,0,1,13.86-7.28c25.61-6.21,51.48-5.71,77.36-1.68,8.4,1.3,16.83,2.79,23.89,8.05,6.66,5,7,11.79.86,17.51-4.15-9.3-13.07-10.75-21.43-12.32-25.1-4.73-50.31-5.12-75.43-.07C437.5,207.29,430.58,209,426.59,216.25Z" transform="translate(-153.4 -189.74)"/><path class="cls-5" d="M886.64,664.47l-82.95,5.3-.09-1.45,83-4.76Z" transform="translate(-153.4 -189.74)"/><path class="cls-5" d="M802.57,565.45l17,1v.34h-17C802.56,566.33,802.56,565.89,802.57,565.45Z" transform="translate(-153.4 -189.74)"/><path class="cls-5" d="M473.4,481.22l-6.51-1.93c5.87-2.74,10.95-5.26,16.14-7.51q28.64-12.4,57.35-24.63c4.8-2,7.15-.63,8.09,4.59A276.16,276.16,0,0,1,547.56,555c-1.22,6.15-2.32,6.87-8.06,4.46-35-14.69-70.23-28.83-104.8-44.45-30.64-13.84-60.72-28.94-90.64-44.28-16.87-8.64-32.93-18.86-49.33-28.4-1.54-.89-2.93-2.05-5.12-3.59l6.25-.54L296,437l-10.64-1.94c2-3.85,3.61-7.41,5.62-10.74,14.59-24.13,33.63-43.45,60.4-53.76,34.84-13.42,66.34-6.08,95,16.53,10.29,8.13,18.2,18.41,25.44,29.26,2.47,3.7,1.57,5.44-2.23,7.07-7.33,3.16-14.48,6.76-21.8,10-3.75,1.63-3.58,3.46-2.15,7,4.69,11.52,9.17,23.15,13,35C460.87,482.3,465.58,485.08,473.4,481.22Z" transform="translate(-153.4 -189.74)"/><path class="cls-5" d="M285,591.25c2.17,0,3.8,0,5.43,0,1.44-.06,2.88-.23,4.31-.35l.14-1.24-7.78-1.24c6-8.27,13.48-12.5,24.12-10.07l-.31-2a49.2,49.2,0,0,0-6.71-.54c-3.25.16-5.51-.87-6.59-4q-5.25-15.32-10.49-30.62c-1.28-3.73,0-5.32,4-4.92,2.18.23,4.41,0,7.62,0-5.09-4.57-13.69-4.48-18.06-.55-8,7.23-16,14.58-24,21.88-.84.77-1.71,1.5-2.6,2.27-5.68-10-5.49-73.05,1.12-89,66.93,49.78,142.3,83.85,218.5,117.73-1.22,2.35-2.14,4.41-3.31,6.31-12.95,21-29.57,38.07-51.93,49.1-36.43,18-78.65,11.35-107.78-17C299.79,616.38,289,601.46,285,591.25Z" transform="translate(-153.4 -189.74)"/><path class="cls-5" d="M427.57,301.37a146.6,146.6,0,0,0-63.19,13c-21,9.46-38.72,23.18-54.78,39.43-14,14.15-26.83,29.11-36.69,46.5a226.84,226.84,0,0,0-23.55,59.22c-.4,1.66-.65,4.31.27,5.18,3.82,3.6,2.35,7.62,1.67,11.63a256.36,256.36,0,0,0-1,80.08c.45,3.08-.78,6.39-1.1,9.61-.22,2.23-.73,4.59-.25,6.71,6.76,29.9,20.67,56.31,38.73,80.93,16.95,23.11,36.88,42.67,63.14,54.56,12.93,5.86,26.85,9.51,38.57,13.56-11.47,3.46-40-.77-56.68-7.07-40.19-15.15-68.29-43.63-88.35-80.68-22.25-41.1-30.5-85.42-27.88-131.73,2.78-48.94,17.23-94.19,46-134.26,21-29.18,47.31-51.91,81.55-64.2C371.54,294,399.49,292.07,427.57,301.37Z" transform="translate(-153.4 -189.74)"/><path class="cls-5" d="M545.87,564.23c-3.44,10.69-6.42,21.57-10.43,32-11.8,30.91-28.88,58.56-53,81.44-21.27,20.2-45.77,34.93-74.79,41.17-10.24,2.2-20.19-.63-30-3-26.54-6.3-48.57-20.53-68-39.2a42.94,42.94,0,0,1-3-3.6c9.06,5.71,17.43,11.64,26.38,16.5C356.8,702.5,382.47,707.46,409,703a141.36,141.36,0,0,0,64.21-28.43c35.17-27.6,56.52-64.07,68.78-106.45.46-1.59,1.19-3.1,1.8-4.65Z" transform="translate(-153.4 -189.74)"/><path class="cls-5" d="M330.08,337.79c21.41-16.91,45-28.72,72-32.37,10.81-1.47,22.1-2.2,32.81-.7,8.4,1.17,16.7,5.5,24.27,9.8C488.2,331,509.27,355.3,525,384.5A222.31,222.31,0,0,1,545,436c.66,2.62,1,5.31,1.55,8l-1.78.73a31.71,31.71,0,0,1-2.48-5c-7-24-17.33-46.41-32.69-66.33-16.72-21.67-37.27-38.29-62.87-48.44-38.63-15.31-75.31-9.69-110.73,10-1.74,1-3.41,2.07-5.12,3.09C330.75,338.12,330.57,338,330.08,337.79Z" transform="translate(-153.4 -189.74)"/></g><g id="Layer_2" data-name="Layer 2"><path class="cls-6" d="M383.43,321c-29.72,4.63-54.64,18.78-75.9,39.43-27.35,26.57-44.3,59.22-54.3,95.78-1.45,5.31-.33,8.49,4,11.91,22.19,17.5,46.14,32.27,70.66,46.12,46.76,26.41,95.36,49.07,144.68,70.21,5.28,2.27,5.65,3,2.71,8.1-11.54,20.15-26.69,36.89-46.55,49.2a96,96,0,0,1-109.3-5c-15.42-11.63-27.21-26.33-36.3-43.29-1.62-3-.64-5.08,1.64-6.95,3.09-2.54,6.17-5.09,9.38-7.47,2.55-1.89,2.83-3.64,1.48-6.7-3.15-7.15-5.78-14.54-8.32-21.93-1.39-4-2.18-8.25-3.43-13.13-2.37,1.8-4.31,3-6,4.57-6,5.52-12.1,11-17.82,16.78-10.95,11.12-10.27,7-5.87,22.22,11.44,39.52,31.71,73.21,65.82,97.42,26.79,19,56.89,26.06,89.12,21.76,33-4.4,60-21.29,82.58-45.16,23.32-24.69,38.63-54,48-86.59,1.29-4.48.42-6.38-4-8.21-35.5-14.79-71.21-29.15-106.22-45-30.62-13.9-60.67-29.14-90.49-44.7-17.85-9.3-34.75-20.41-52.14-30.58-3.85-2.26-4.56-4.79-2.19-8.54,3.64-5.77,6.74-11.91,10.7-17.45,19.12-26.76,43.67-45.44,76.9-51.17l12.57-.79c17.66.06,34.31,3.81,49.54,13.14,17.12,10.49,30.41,24.69,40.89,41.67,3.34,5.41,3,5.94-2.94,8.63-8.29,3.73-16.45,7.72-23.8,11.19,5.19,14.21,10.08,27.59,15.21,41.61.91-.35,2.3-.82,3.64-1.4,23.5-10.23,47-20.57,70.54-30.63,3.42-1.46,2.91-3.24,2.17-5.84-7.14-25.3-18.26-48.62-35-69-20.76-25.37-46.16-43.71-79.12-49.4-10.09-1.74-20.51-1.75-30.79-2.26" transform="translate(-153.4 -189.74)"/></g></svg>